HIERARCHY
ROOT Hips
{
	OFFSET	0.00	0.00	0.00
	CHANNELS 6 Xposition Yposition Zposition Zrotation Xrotation Yrotation
	JOINT LeftUpLeg
	{
		OFFSET	 0.126116	-0.014019	-0.065224
		CHANNELS 3 Zrotation Xrotation Yrotation
		JOINT LeftLeg
		{
			OFFSET	 0.000000	 0.000000	 0.569914
			CHANNELS 3 Zrotation Xrotation Yrotation
			JOINT LeftFoot
			{
				OFFSET	 0.000000	 0.000000	 0.544423
				CHANNELS 3 Zrotation Xrotation Yrotation
				JOINT LeftToeBase
				{
					OFFSET	 0.000000	 0.000000	 0.207117
					CHANNELS 3 Zrotation Xrotation Yrotation
					End Site
					{
						OFFSET	 0.000000	 0.000000	 0.207117
					}
				}
			}
		}
	}
	JOINT RightUpLeg
	{
		OFFSET	-0.124023	-0.008373	-0.065224
		CHANNELS 3 Zrotation Xrotation Yrotation
		JOINT RightLeg
		{
			OFFSET	 0.000000	 0.000000	 0.570047
			CHANNELS 3 Zrotation Xrotation Yrotation
			JOINT RightFoot
			{
				OFFSET	 0.000000	 0.000000	 0.544354
				CHANNELS 3 Zrotation Xrotation Yrotation
				JOINT RightToeBase
				{
					OFFSET	 0.000000	 0.000000	 0.207540
					CHANNELS 3 Zrotation Xrotation Yrotation
					End Site
					{
						OFFSET	 0.000000	 0.000000	 0.207540
					}
				}
			}
		}
	}
	JOINT Spine
	{
		OFFSET	 0.000184	-0.007763	 0.117403
		CHANNELS 3 Zrotation Xrotation Yrotation
		JOINT Spine1
		{
			OFFSET	 0.000000	 0.000000	 0.137269
			CHANNELS 3 Zrotation Xrotation Yrotation
			JOINT Spine2
			{
				OFFSET	 0.000000	 0.000000	 0.156879
				CHANNELS 3 Zrotation Xrotation Yrotation
				JOINT LeftShoulder
				{
					OFFSET	 0.080501	-0.002496	 0.160144
					CHANNELS 3 Zrotation Xrotation Yrotation
					JOINT LeftArm
					{
						OFFSET	 0.000000	 0.000000	 0.164363
						CHANNELS 3 Zrotation Xrotation Yrotation
						JOINT LeftForeArm
						{
							OFFSET	 0.000000	 0.000000	 0.364576
							CHANNELS 3 Zrotation Xrotation Yrotation
							JOINT LeftHand
							{
								OFFSET	 0.000000	 0.000000	 0.360812
								CHANNELS 3 Zrotation Xrotation Yrotation
								JOINT LeftHandIndex1
								{
									OFFSET	 0.000000	 0.000000	 0.086006
									CHANNELS 3 Zrotation Xrotation Yrotation
									JOINT LeftHandIndex2
									{
										OFFSET	 0.000000	 0.000000	 0.047236
										CHANNELS 3 Zrotation Xrotation Yrotation
										JOINT LeftHandIndex3
										{
											OFFSET	-0.004284	-0.000551	 0.038166
											CHANNELS 3 Zrotation Xrotation Yrotation
											End Site
											{
												OFFSET	-0.004284	-0.000551	 0.038166
											}
										}
									}
								}
							}
						}
					}
				}
				JOINT Neck
				{
					OFFSET	 0.000000	 0.000000	 0.176489
					CHANNELS 3 Zrotation Xrotation Yrotation
					JOINT Head
					{
						OFFSET	 0.000000	-0.001747	 0.077940
						CHANNELS 3 Zrotation Xrotation Yrotation
						End Site
						{
							OFFSET	 0.000000	-0.001747	 0.077940
						}
					}
				}
				JOINT RightShoulder
				{
					OFFSET	-0.080363	 0.000306	 0.159706
					CHANNELS 3 Zrotation Xrotation Yrotation
					JOINT RightArm
					{
						OFFSET	 0.000000	 0.000000	 0.164196
						CHANNELS 3 Zrotation Xrotation Yrotation
						JOINT RightForeArm
						{
							OFFSET	 0.000000	 0.000000	 0.365611
							CHANNELS 3 Zrotation Xrotation Yrotation
							JOINT RightHand
							{
								OFFSET	 0.000000	 0.000000	 0.360648
								CHANNELS 3 Zrotation Xrotation Yrotation
								JOINT RightHandIndex1
								{
									OFFSET	 0.000000	 0.000000	 0.069977
									CHANNELS 3 Zrotation Xrotation Yrotation
									JOINT RightHandIndex2
									{
										OFFSET	 0.000000	 0.000000	 0.052305
										CHANNELS 3 Zrotation Xrotation Yrotation
										JOINT RightHandIndex3
										{
											OFFSET	 0.009002	-0.000782	 0.042196
											CHANNELS 3 Zrotation Xrotation Yrotation
											End Site
											{
												OFFSET	 0.009002	-0.000782	 0.042196
											}
										}
									}
								}
							}
						}
					}
				}
			}
		}
	}
}
MOTION
Frames:    8
Frame Time: 0.03333334
-0.000645	 0.019839	 1.269578	 0.002670	-0.001338	-0.188386	 5.330907	-2.127349	 177.049200	 1.472076	-12.052520	-0.703791	-8.854500	 70.753650	 2.944621	-2.385833	 28.452760	 0.000004	-5.388930	-2.971765	-176.753300	-1.443286	-13.240110	 0.761302	 8.846778	 71.235650	-3.060220	 2.384658	 28.388730	 0.000004	 4.092038	 2.791757	-0.112756	 2.179695	 3.511890	 0.867030	-6.562318	-4.280937	-1.414735	-91.776160	 78.527470	 180.000000	 60.835040	 40.778630	-59.360960	-8.235125	 0.189705	-0.512867	-29.297870	 1.000649	-4.350411	-2.635965	 4.993658	 6.788941	-5.165319	 0.784187	 3.516649	-5.225038	 0.466231	 0.424329	-0.000002	-3.783157	-0.089647	-6.388125	 4.714712	 0.263236	 89.782010	 78.203850	-179.999900	-62.376830	 41.236900	 54.750630	 8.076389	 3.065369	 6.974724	 28.665820	 0.179579	 8.933412	 6.112037	 4.509576	-0.364401	 4.968462	 1.518543	-9.347576	 5.168945	 0.703820	 2.021906
-0.000629	 0.020633	 1.257638	 0.003528	-0.002144	-0.173627	 6.341380	-6.425834	 177.259800	 1.318309	-20.724350	-1.247203	-12.388260	 74.992580	 6.647367	-2.385833	 28.452760	 0.000004	-6.394466	-7.030411	-176.970300	-1.291784	-21.410230	 1.268765	 12.203970	 75.231410	-6.571334	 2.384658	 28.388730	 0.000004	 2.126972	 2.992509	-0.139282	 2.112585	 2.808917	 0.882582	-6.369086	-3.391971	-1.311751	-91.776180	 78.527490	 180.000000	 60.243420	 40.526980	-59.006380	-8.924279	 0.201277	-0.937831	-29.297860	 1.000674	-4.350416	-2.635965	 4.993658	 6.788941	-5.165319	 0.784187	 3.516649	-5.225038	 0.466231	 0.424329	-0.000002	-3.783157	-0.089647	-6.239292	 5.159461	 0.281375	 89.782210	 78.203870	 179.999900	-61.662240	 40.722070	 56.358610	 8.139239	 2.348896	 5.761831	 28.546570	-0.204863	 8.695450	 6.112037	 4.509576	-0.364401	 4.968462	 1.518543	-9.347576	 5.168945	 0.703820	 2.021906
-0.000613	 0.021473	 1.245194	 0.005007	 0.000332	-0.147864	 7.452682	-9.567301	 177.350200	 1.143190	-26.996810	-1.679469	-16.557820	 77.972480	 10.929100	-2.385833	 28.452760	 0.000004	-7.536656	-10.082990	-177.102400	-1.119627	-27.493490	 1.684089	 16.163940	 78.130790	-10.664050	 2.384658	 28.388730	 0.000004	-0.536448	 3.190310	-0.154288	 1.944380	 2.101544	 0.852782	-5.867499	-2.516830	-1.153101	-91.776160	 78.527420	 180.000000	 59.590610	 40.265810	-58.551630	-9.795300	 0.231712	-1.480187	-29.297820	 1.000665	-4.350433	-2.635965	 4.993658	 6.788941	-5.165319	 0.784187	 3.516649	-5.225038	 0.466231	 0.424329	-0.000002	-3.783157	-0.089647	-5.782045	 5.641200	 0.285099	 89.782110	 78.203890	 180.000000	-61.169560	 39.860030	 60.713950	 7.934156	 0.235513	 1.486575	 28.802430	-1.014319	 8.224422	 6.112037	 4.509576	-0.364401	 4.968462	 1.518543	-9.347576	 5.168945	 0.703820	 2.021906
-0.000586	 0.022221	 1.234232	 0.006170	 0.002597	-0.121581	 8.465382	-11.854930	 177.382900	 0.975406	-31.527360	-2.022453	-21.090560	 80.051890	 15.556750	-2.385833	 28.452760	 0.000004	-8.555605	-12.319420	-177.184200	-0.954984	-31.921700	 2.016062	 20.539300	 80.172990	-15.128150	 2.384658	 28.388730	 0.000004	-3.285581	 3.349675	-0.149263	 1.715394	 1.529733	 0.782078	-5.178819	-1.822869	-0.979253	-91.776200	 78.527450	-180.000000	 58.981590	 40.032840	-58.052140	-10.659510	 0.278769	-2.020312	-29.297860	 1.000673	-4.350419	-2.635965	 4.993658	 6.788941	-5.165319	 0.784187	 3.516649	-5.225038	 0.466231	 0.424329	-0.000002	-3.783157	-0.089647	-5.126768	 6.056869	 0.271399	 89.782100	 78.203900	 180.000000	-58.142010	 37.869630	 58.209610	 7.101024	 3.237571	 9.057429	 28.813880	-1.860719	 7.634278	 6.112037	 4.509576	-0.364401	 4.968462	 1.518543	-9.347576	 5.168945	 0.703820	 2.021906
-0.000538	 0.023142	 1.222324	 0.006788	 0.004538	-0.089396	 9.580267	-14.046080	 177.388500	 0.776425	-35.835090	-2.380996	-27.520880	 81.930630	 22.079480	-2.385833	 28.452760	 0.000004	-9.682629	-14.468220	-177.252600	-0.760216	-36.143670	 2.363842	 26.742130	 82.025310	-21.417490	 2.384658	 28.388730	 0.000004	-6.801421	 3.506532	-0.119472	 1.366220	 0.967080	 0.647013	-4.125685	-1.151511	-0.750716	-91.776120	 78.527470	 179.999900	 58.272010	 39.773080	-57.386550	-11.844070	 0.363195	-2.704096	-29.205960	 1.012689	-4.335556	-2.635965	 4.993658	 6.788941	-5.165319	 0.784187	 3.516649	-5.225038	 0.466231	 0.424329	-0.000002	-3.783157	-0.089647	-4.102633	 6.489992	 0.232689	 89.782170	 78.203870	 179.999900	-54.588070	 35.511800	 59.810050	 5.468778	 4.042580	 12.212250	 28.035760	-3.069901	 6.389198	 6.112037	 4.509576	-0.364401	 4.968462	 1.518543	-9.347576	 5.168945	 0.703820	 2.021906
-0.000455	 0.024897	 1.223106	 0.006260	 0.005053	-0.060090	 9.578813	-13.991790	 177.360700	 0.784885	-35.669510	-2.366521	-27.106360	 81.842090	 21.659310	-2.385833	 28.452760	 0.000004	-9.694922	-14.456810	-177.291700	-0.770814	-35.935150	 2.345819	 25.977670	 81.854060	-20.644340	 2.384658	 28.388730	 0.000004	-10.209390	 3.624187	-0.100426	 0.980266	 0.560221	 0.534384	-2.961985	-0.680543	-0.550946	-91.776230	 78.527470	-180.000000	 57.782440	 39.630370	-56.938920	-12.952050	 0.471712	-3.373219	-29.169470	 1.017500	-4.329690	-2.635965	 4.993658	 6.788941	-5.165319	 0.784187	 3.516649	-5.225038	 0.466231	 0.424329	-0.000002	-3.783157	-0.089647	-2.955633	 6.808692	 0.175846	 89.782100	 78.203890	 180.000000	-50.612180	 33.243130	 62.850940	 3.497078	 4.192380	 14.110210	 26.766080	-4.139970	 4.891856	 6.112037	 4.509576	-0.364401	 4.968462	 1.518543	-9.347576	 5.168945	 0.703820	 2.021906
-0.000330	 0.026868	 1.223701	 0.004006	 0.003620	-0.028215	 9.579372	-13.931370	 177.331900	 0.793941	-35.490700	-2.350956	-26.658540	 81.746600	 21.204740	-2.385833	 28.452760	 0.000004	-9.706823	-14.441620	-177.334500	-0.782664	-35.699690	 2.325579	 25.152640	 81.659500	-19.809390	 2.384658	 28.388730	 0.000004	-14.127770	 3.701253	-0.007394	 0.486916	 0.283664	 0.269460	-1.471448	-0.356641	-0.268485	-91.776200	 78.527430	 180.000000	 57.223460	 39.467260	-56.296290	-14.290130	 0.639152	-4.180780	-29.123830	 1.023404	-4.322258	-2.635965	 4.993658	 6.788941	-5.165319	 0.784187	 3.516649	-5.225038	 0.466231	 0.424329	-0.000002	-3.783157	-0.089647	-1.474983	 7.044672	 0.090782	 89.782170	 78.203870	 179.999900	-44.938190	 30.187600	 66.110540	 1.020337	 4.575434	 17.341690	 24.623490	-4.996742	 2.946634	 6.112037	 4.509576	-0.364401	 4.968462	 1.518543	-9.347576	 5.168945	 0.703820	 2.021906
-0.000199	 0.028528	 1.223964	 0.000599	 0.000848	-0.002305	 9.581875	-13.880380	 177.309800	 0.801300	-35.344200	-2.338255	-26.290410	 81.668500	 20.830510	-2.385833	 28.452760	 0.000004	-9.715181	-14.426630	-177.369800	-0.792719	-35.497590	 2.308301	 24.475320	 81.491870	-19.123470	 2.384658	 28.388730	 0.000004	-17.354800	 3.723314	 0.082271	 0.038300	 0.204947	 0.023119	-0.115376	-0.262221	-0.021789	-91.776150	 78.527430	 180.000000	 56.747340	 39.323010	-55.628970	-15.495260	 0.822728	-4.904366	-29.082080	 1.028869	-4.315536	-2.635965	 4.993658	 6.788941	-5.165319	 0.784187	 3.516649	-5.225038	 0.466231	 0.424329	-0.000002	-3.783157	-0.089647	-0.122658	 7.118575	 0.007615	 89.782090	 78.203870	 180.000000	-39.528170	 27.473520	 70.054800	-1.178795	 4.324153	 18.593130	 22.192190	-5.319739	 1.142237	 6.112037	 4.509576	-0.364401	 4.968462	 1.518543	-9.347576	 5.168945	 0.703820	 2.021906
